<!DOCTYPE svg PUBLIC "-//W3C//DTD SVG 20010904//EN" "http://www.w3.org/TR/2001/REC-SVG-20010904/DTD/svg10.dtd">
<svg version="1.0" xmlns="http://www.w3.org/2000/svg" width="300px" height="78px" viewBox="0 0 3000 780" preserveAspectRatio="xMidYMid meet">
<g id="layer101" fill="#050707" stroke="none">
<path d="M0 390 l0 -390 1500 0 1500 0 0 390 0 390 -1500 0 -1500 0 0 -390z"/>
</g>
<g id="layer102" fill="#5f6060" stroke="none">
<path d="M1381 621 c-39 -39 -40 -102 -1 -141 22 -22 70 -26 88 -8 9 9 12 0 12 -41 0 -38 4 -51 13 -49 8 3 13 40 15 126 l3 121 -28 0 c-15 0 -40 2 -55 6 -19 5 -31 2 -47 -14z m88 -43 c30 -53 -21 -114 -65 -78 -17 15 -19 81 -2 98 19 19 51 10 67 -20z"/>
<path d="M1583 630 c-29 -12 -43 -40 -43 -89 0 -31 6 -44 26 -60 36 -28 85 -27 112 2 28 29 30 95 5 126 -21 24 -68 35 -100 21z m71 -36 c35 -35 12 -104 -34 -104 -19 0 -33 7 -40 19 -33 63 28 132 74 85z"/>
<path d="M1963 633 c-28 -11 -13 -33 19 -31 44 4 50 -25 9 -42 -33 -13 -46 -39 -36 -70 11 -33 87 -41 93 -10 2 11 -6 15 -29 15 -43 0 -48 20 -10 40 56 28 63 77 14 96 -26 10 -41 10 -60 2z"/>
<path d="M2173 630 c-13 -5 -23 -16 -23 -25 0 -18 1 -18 36 -5 70 27 89 -31 24 -74 -67 -44 -73 -95 -15 -123 41 -20 85 -11 85 17 0 17 -4 18 -26 10 -29 -11 -64 2 -64 25 0 8 17 26 38 41 49 36 62 53 62 79 0 44 -69 76 -117 55z"/>
<path d="M2336 618 c-10 -14 -16 -43 -16 -75 0 -29 -4 -53 -10 -53 -5 0 -10 -7 -10 -15 0 -8 4 -15 9 -15 5 0 11 -9 14 -20 3 -11 12 -20 21 -20 9 0 16 8 16 20 0 13 7 20 20 20 11 0 20 7 20 15 0 8 -9 15 -20 15 -18 0 -20 7 -20 56 0 48 3 57 20 61 26 7 21 27 -7 31 -13 2 -27 -6 -37 -20z"/>
<path d="M2439 611 c-32 -33 -37 -67 -14 -110 39 -76 155 -43 155 44 0 45 -45 95 -85 95 -16 0 -38 -12 -56 -29z m81 -11 c44 -24 26 -110 -23 -110 -33 0 -47 19 -47 62 0 49 30 70 70 48z"/>
<path d="M2744 628 c-42 -20 -55 -78 -29 -127 35 -69 135 -47 135 29 0 30 -1 30 -55 30 -43 0 -55 3 -55 15 0 24 45 40 75 27 21 -10 25 -9 25 3 0 9 -12 20 -26 25 -31 12 -43 12 -70 -2z m74 -110 c-8 -22 -37 -34 -55 -22 -33 21 -26 34 17 34 28 0 40 -4 38 -12z"/>
<path d="M836 528 c-16 -57 -31 -109 -34 -115 -2 -8 4 -13 15 -13 15 0 23 17 43 91 l25 91 28 -91 c16 -52 34 -91 41 -91 7 0 23 35 37 85 13 46 26 81 30 77 3 -4 15 -40 25 -81 17 -66 35 -94 50 -78 3 3 -1 31 -10 61 -9 31 -23 81 -32 111 -12 42 -20 55 -34 55 -19 0 -36 -43 -55 -138 -9 -45 -18 -32 -40 61 -16 65 -22 77 -40 77 -17 0 -24 -15 -49 -102z"/>
<path d="M1120 545 c0 -69 3 -85 15 -85 12 0 15 16 15 85 0 69 -3 85 -15 85 -12 0 -15 -16 -15 -85z"/>
<path d="M1180 550 c0 -65 3 -82 16 -87 9 -3 20 0 24 7 5 8 9 9 14 1 4 -6 20 -11 36 -11 42 0 60 32 60 107 0 56 -2 63 -20 63 -18 0 -20 -7 -20 -65 0 -52 -4 -67 -16 -72 -33 -12 -49 11 -52 76 -3 53 -6 61 -22 61 -18 0 -20 -7 -20 -80z"/>
<path d="M1757 623 c-7 -11 -47 -143 -47 -154 0 -5 7 -9 15 -9 9 0 21 23 33 63 l19 62 18 -63 c23 -81 42 -80 65 3 l17 60 18 -62 c11 -38 23 -63 31 -63 18 0 18 8 -8 95 -28 97 -50 102 -74 18 l-17 -58 -19 58 c-18 51 -38 71 -51 50z"/>
<path d="M2600 545 c0 -69 3 -85 15 -85 8 0 15 5 15 12 0 9 3 9 12 0 17 -17 48 -15 48 3 0 8 -9 15 -20 15 -25 0 -40 35 -40 96 0 32 -4 44 -15 44 -12 0 -15 -16 -15 -85z"/>
<path d="M1117 424 c-9 -9 4 -34 18 -34 14 0 27 25 18 34 -4 3 -12 6 -18 6 -6 0 -14 -3 -18 -6z"/>
<path d="M814 297 c-3 -8 -4 -45 -2 -83 l3 -69 42 1 c68 1 102 45 81 105 -16 46 -110 81 -124 46z m90 -33 c34 -33 12 -94 -34 -94 -30 0 -30 1 -30 55 0 52 2 55 24 55 14 0 32 -7 40 -16z"/>
<path d="M982 294 c-24 -16 -29 -53 -12 -85 12 -22 68 -27 88 -7 18 18 14 73 -6 91 -23 21 -41 21 -70 1z m68 -39 c0 -41 -32 -59 -58 -33 -16 16 -15 33 4 52 18 18 54 6 54 -19z"/>
<path d="M1107 280 c-8 -19 -17 -48 -21 -63 -10 -42 15 -30 29 14 l12 34 12 -38 c15 -45 31 -44 45 4 l10 34 10 -37 c5 -21 16 -38 23 -38 10 0 12 7 7 23 -32 103 -43 113 -59 60 -10 -36 -25 -44 -25 -15 0 10 -6 27 -14 38 -14 18 -15 17 -29 -16z"/>
<path d="M1257 304 c-4 -4 -7 -32 -7 -61 l0 -54 48 3 47 3 3 44 c5 65 -11 88 -17 26 -5 -41 -9 -50 -26 -50 -16 0 -21 8 -23 40 -3 41 -13 60 -25 49z"/>
<path d="M1387 303 c-11 -11 -8 -163 3 -163 6 0 10 35 10 85 0 85 -1 91 -13 78z"/>
<path d="M1440 290 c-40 -40 -12 -100 45 -100 36 0 55 20 55 59 0 27 -34 61 -60 61 -11 0 -29 -9 -40 -20z m58 -9 c8 -5 12 -21 10 -37 -2 -23 -8 -29 -28 -29 -18 0 -26 6 -28 23 -3 22 13 52 27 52 3 0 12 -4 19 -9z"/>
<path d="M1560 295 c-19 -23 -7 -49 28 -60 41 -12 42 -30 1 -21 -22 4 -29 2 -26 -7 2 -6 19 -12 38 -12 l34 0 3 55 3 55 -35 2 c-19 1 -40 -5 -46 -12z m60 -36 c0 -12 -27 -11 -35 1 -11 17 5 32 21 19 8 -6 14 -15 14 -20z"/>
<path d="M1676 288 c-20 -29 -20 -48 0 -77 12 -17 24 -22 45 -19 26 4 29 2 29 -24 0 -15 5 -28 10 -28 7 0 10 30 8 81 l-3 82 -37 4 c-29 3 -40 -1 -52 -19z m69 -28 c9 -28 -5 -51 -29 -48 -15 2 -22 11 -24 32 -5 45 39 59 53 16z"/>
<path d="M1860 261 c0 -30 -5 -52 -12 -55 -10 -5 -10 -7 0 -12 6 -3 12 -13 12 -23 0 -20 19 -41 37 -41 7 0 13 7 13 15 0 8 -7 15 -15 15 -8 0 -15 7 -15 15 0 8 7 15 15 15 8 0 15 5 15 10 0 6 -7 10 -15 10 -11 0 -15 12 -15 44 0 25 -4 48 -10 51 -6 4 -10 -13 -10 -44z"/>
<path d="M1926 303 c-3 -3 -6 -30 -6 -58 0 -51 1 -52 30 -53 17 0 30 4 30 9 0 5 -7 9 -15 9 -15 0 -32 61 -21 79 7 11 -8 24 -18 14z"/>
<path d="M2007 292 c-20 -22 -22 -73 -5 -90 20 -20 76 -15 88 7 17 32 12 69 -12 85 -29 21 -51 20 -71 -2z m68 -32 c10 -30 -5 -51 -34 -48 -19 2 -27 10 -29 27 -7 45 50 64 63 21z"/>
<path d="M2126 303 c-3 -3 -6 -30 -6 -58 l0 -52 78 1 77 1 3 58 c2 39 0 57 -7 52 -6 -3 -11 -26 -11 -51 0 -37 -3 -44 -19 -44 -17 0 -20 8 -23 48 -2 26 -7 47 -13 47 -5 0 -11 -21 -13 -47 -3 -40 -6 -48 -23 -48 -16 0 -19 7 -19 44 0 43 -10 63 -24 49z"/>
<path d="M260 197 c0 -43 5 -58 23 -75 29 -27 96 -38 120 -20 22 16 37 118 18 118 -6 0 -11 -17 -11 -37 0 -43 -8 -60 -30 -63 -65 -10 -100 20 -100 85 0 25 -4 45 -10 45 -5 0 -10 -24 -10 -53z"/>
</g>
<g id="layer103" fill="#7f8181" stroke="none">
<path d="M360 645 l-205 -41 -3 -155 -2 -154 210 -42 c175 -35 215 -40 243 -31 59 20 58 14 55 232 l-3 200 -45 17 c-44 15 -49 15 -250 -26z m100 -140 l0 -55 -55 0 -55 0 0 44 0 44 53 10 c28 5 53 10 55 11 1 0 2 -24 2 -54z m-130 -10 l0 -45 -45 0 -45 0 0 39 c0 39 1 40 38 44 20 2 40 4 45 5 4 1 7 -18 7 -43z m0 -107 c0 -33 -3 -39 -16 -34 -9 3 -29 6 -45 6 -26 0 -29 3 -29 33 0 19 2 36 4 38 3 3 23 3 45 1 40 -4 41 -5 41 -44z m128 -31 c-3 -21 -6 -22 -55 -14 l-53 9 0 38 0 39 53 3 c50 3 52 2 55 -25 2 -15 2 -37 0 -50z"/>
<path d="M865 618 c-17 -46 -63 -213 -60 -217 15 -14 33 19 55 95 l24 89 29 -92 c17 -56 34 -93 42 -93 8 0 22 34 36 89 13 49 26 88 30 85 3 -2 9 -17 13 -34 16 -81 38 -140 53 -140 8 0 13 6 11 13 -3 6 -18 58 -33 115 -22 79 -32 102 -46 102 -13 0 -22 -20 -40 -85 -12 -47 -25 -83 -28 -79 -3 3 -15 40 -27 82 -14 54 -25 78 -37 80 -9 2 -19 -2 -22 -10z"/>
<path d="M1122 548 c4 -106 22 -105 26 2 2 67 0 80 -13 80 -13 0 -15 -13 -13 -82z"/>
<path d="M1190 546 c0 -47 4 -86 9 -86 5 0 11 5 13 11 3 9 9 9 25 0 57 -30 83 -2 83 90 0 39 -4 69 -10 69 -5 0 -10 -23 -10 -51 0 -63 -13 -89 -46 -89 -30 0 -47 36 -42 94 1 25 -2 41 -10 44 -9 3 -12 -19 -12 -82z"/>
<path d="M1374 609 c-29 -32 -24 -97 10 -126 30 -25 47 -28 77 -13 17 10 19 7 19 -35 0 -33 4 -45 15 -45 13 0 15 20 15 120 0 100 -2 120 -15 120 -8 0 -15 -5 -15 -12 0 -9 -3 -9 -12 0 -19 19 -73 14 -94 -9z m90 -15 c19 -18 21 -75 4 -92 -22 -22 -64 -14 -76 13 -16 34 -15 46 4 73 18 26 46 28 68 6z"/>
<path d="M1560 608 c-48 -52 -9 -148 60 -148 71 0 109 99 57 148 -31 30 -89 30 -117 0z m98 -10 c7 -7 12 -28 12 -48 0 -20 -5 -41 -12 -48 -15 -15 -61 -15 -76 0 -17 17 -15 74 4 92 18 19 55 21 72 4z"/>
<path d="M1755 618 c-24 -72 -42 -145 -38 -151 9 -15 24 9 42 69 l18 59 18 -63 c17 -60 30 -81 42 -68 3 3 13 34 23 68 l17 63 12 -44 c20 -73 31 -95 41 -85 13 13 -33 158 -52 162 -11 2 -20 -15 -33 -60 l-18 -63 -20 63 c-18 59 -41 81 -52 50z"/>
<path d="M1950 616 c0 -11 9 -13 35 -9 30 5 35 3 35 -13 -1 -11 -15 -28 -33 -39 -41 -26 -46 -58 -13 -80 28 -18 67 -17 74 3 2 8 -8 12 -32 12 -47 0 -47 21 -1 49 37 21 47 55 23 79 -18 18 -88 16 -88 -2z"/>
<path d="M2167 623 c-4 -3 -7 -12 -7 -19 0 -10 7 -10 30 -1 22 8 35 9 48 1 29 -19 19 -46 -28 -79 -51 -36 -63 -74 -34 -106 22 -25 104 -27 104 -3 0 12 -7 14 -30 9 -34 -8 -60 7 -60 35 0 9 18 29 40 44 54 36 68 67 46 101 -13 20 -24 25 -60 25 -23 0 -46 -3 -49 -7z"/>
<path d="M2337 623 c-4 -3 -7 -35 -7 -70 0 -49 -3 -63 -15 -63 -8 0 -15 -4 -15 -9 0 -5 7 -11 15 -15 8 -3 15 -15 15 -26 0 -11 6 -20 13 -20 8 0 13 10 13 23 -1 16 5 23 22 25 30 5 28 22 -3 22 -23 0 -25 4 -25 44 0 57 8 76 31 76 10 0 19 5 19 10 0 11 -53 14 -63 3z"/>
<path d="M2434 609 c-30 -33 -25 -96 9 -125 47 -40 104 -29 127 25 14 34 7 77 -17 104 -23 25 -94 23 -119 -4z m98 -16 c21 -19 24 -61 5 -87 -9 -12 -23 -17 -47 -14 -29 2 -36 8 -44 35 -17 62 41 107 86 66z"/>
<path d="M2600 550 c0 -64 3 -80 15 -80 8 0 15 5 15 11 0 6 7 3 16 -5 20 -20 44 -21 44 -1 0 8 -9 15 -20 15 -27 0 -40 29 -40 89 0 39 -4 51 -15 51 -12 0 -15 -16 -15 -80z"/>
<path d="M2725 610 c-31 -34 -26 -96 8 -126 16 -13 39 -24 52 -24 29 0 67 45 63 74 -3 18 -12 22 -61 26 l-58 5 17 24 c14 20 22 22 56 17 30 -5 39 -3 36 6 -3 7 -24 14 -49 16 -36 2 -49 -2 -64 -18z m95 -84 c0 -39 -61 -51 -80 -16 -10 19 -8 20 35 20 25 0 45 -2 45 -4z"/>
<path d="M1122 414 c4 -21 22 -23 26 -1 2 10 -3 17 -13 17 -10 0 -15 -6 -13 -16z"/>
<path d="M1000 302 c-40 -12 -53 -67 -22 -95 42 -38 92 -12 92 46 0 34 -37 60 -70 49z m40 -26 c6 -8 10 -25 8 -38 -2 -18 -9 -23 -33 -23 -24 0 -31 5 -33 23 -6 42 33 68 58 38z"/>
<path d="M1452 294 c-25 -17 -31 -71 -10 -92 20 -20 65 -14 82 10 22 31 20 45 -9 73 -28 29 -33 30 -63 9z m58 -24 c18 -33 3 -62 -28 -58 -21 2 -28 9 -30 32 -5 45 38 64 58 26z"/>
<path d="M1566 297 c-25 -19 -14 -46 24 -60 39 -15 38 -27 -2 -27 -23 0 -29 -3 -21 -11 6 -6 23 -9 39 -7 27 3 29 6 32 56 2 40 0 52 -12 52 -8 0 -20 2 -28 5 -7 3 -22 -1 -32 -8z m52 -30 c2 -11 -3 -17 -17 -17 -23 0 -35 15 -26 31 10 15 39 6 43 -14z"/>
<path d="M1686 297 c-23 -17 -26 -68 -6 -92 9 -11 24 -15 42 -13 25 4 28 2 28 -24 0 -15 5 -28 10 -28 6 0 10 33 10 79 0 70 -2 80 -17 79 -10 0 -25 2 -33 6 -9 3 -24 0 -34 -7z m54 -21 c18 -23 8 -61 -17 -64 -29 -4 -48 30 -33 58 13 24 33 26 50 6z"/>
<path d="M2012 294 c-26 -18 -30 -65 -6 -88 47 -48 123 23 82 76 -20 25 -51 30 -76 12z m58 -19 c7 -9 10 -25 6 -41 -5 -20 -12 -25 -34 -22 -19 2 -28 9 -30 26 -6 43 33 68 58 37z"/>
<path d="M820 225 l0 -75 38 0 c55 0 82 23 82 69 0 49 -32 81 -83 81 l-37 0 0 -75z m88 43 c7 -7 12 -26 12 -43 0 -38 -16 -55 -52 -55 -27 0 -28 1 -28 55 0 54 1 55 28 55 15 0 33 -5 40 -12z"/>
<path d="M1101 259 c-7 -23 -15 -48 -18 -56 -4 -10 -1 -14 7 -11 8 2 19 22 25 44 l12 39 13 -42 c7 -24 17 -43 21 -43 5 0 14 19 21 42 l13 42 10 -39 c7 -21 16 -40 22 -42 7 -3 5 17 -5 52 -17 63 -38 72 -48 20 -3 -19 -10 -35 -14 -35 -4 0 -11 16 -14 35 -9 47 -30 44 -45 -6z"/>
<path d="M1260 248 c0 -52 0 -53 32 -55 44 -3 58 12 58 63 0 56 -18 57 -22 2 -2 -36 -7 -44 -25 -46 -21 -3 -23 1 -23 42 0 25 -4 46 -10 46 -5 0 -10 -24 -10 -52z"/>
<path d="M1860 256 c0 -26 -5 -46 -12 -49 -10 -4 -10 -8 -2 -14 7 -4 13 -17 15 -28 3 -13 13 -21 29 -23 22 -2 23 -1 8 8 -21 13 -23 36 -5 44 10 5 10 7 0 12 -8 3 -13 24 -13 50 0 24 -4 44 -10 44 -5 0 -10 -20 -10 -44z"/>
<path d="M1920 247 c0 -53 1 -54 30 -55 17 0 30 4 30 9 0 5 -6 9 -14 9 -17 0 -26 22 -26 61 0 16 -4 29 -10 29 -5 0 -10 -24 -10 -53z"/>
<path d="M2122 248 l3 -53 75 0 75 0 3 53 c2 31 -1 52 -7 52 -6 0 -11 -20 -11 -45 0 -37 -3 -45 -19 -45 -21 0 -31 19 -31 61 0 16 -4 29 -10 29 -5 0 -10 -20 -10 -45 0 -37 -3 -45 -19 -45 -21 0 -31 19 -31 61 0 16 -5 29 -11 29 -6 0 -9 -20 -7 -52z"/>
<path d="M260 202 c0 -27 7 -57 15 -69 18 -25 86 -47 115 -38 29 9 56 125 30 125 -5 0 -10 -18 -10 -39 0 -51 -23 -75 -63 -67 -50 10 -67 33 -67 88 0 26 -4 48 -10 48 -5 0 -10 -21 -10 -48z"/>
</g>
<g id="layer104" fill="#a0a1a1" stroke="none">
<path d="M360 645 l-205 -41 -3 -155 -2 -154 210 -42 c175 -35 215 -40 243 -31 59 20 58 14 55 232 l-3 200 -45 17 c-44 15 -49 15 -250 -26z m100 -140 l0 -55 -55 0 -55 0 0 44 0 44 53 10 c28 5 53 10 55 11 1 0 2 -24 2 -54z m-130 -10 l0 -45 -45 0 -45 0 0 39 c0 39 1 40 38 44 20 2 40 4 45 5 4 1 7 -18 7 -43z m0 -103 c0 -36 -3 -43 -16 -38 -9 3 -29 6 -45 6 -26 0 -29 3 -29 33 0 19 2 36 4 38 3 2 23 4 45 4 l41 1 0 -44z m130 -8 l0 -51 -42 8 c-24 4 -49 8 -55 9 -8 0 -13 15 -13 43 l0 42 55 0 55 0 0 -51z"/>
<path d="M865 618 c-2 -7 -15 -53 -30 -103 -14 -49 -28 -96 -30 -103 -3 -8 1 -12 12 -10 11 2 23 29 39 86 25 93 30 102 37 75 41 -140 49 -163 61 -163 9 0 22 33 37 90 13 50 26 90 30 90 3 0 11 -24 18 -53 23 -104 32 -127 48 -127 9 0 13 6 10 14 -3 8 -18 60 -34 115 -36 131 -51 134 -83 16 -12 -46 -27 -82 -31 -79 -5 3 -9 10 -9 16 0 6 -9 42 -20 79 -14 45 -26 69 -36 69 -8 0 -16 -6 -19 -12z"/>
<path d="M1120 550 c0 -64 3 -80 15 -80 12 0 15 16 15 80 0 64 -3 80 -15 80 -12 0 -15 -16 -15 -80z"/>
<path d="M1190 550 c0 -47 4 -80 10 -80 6 0 10 5 10 11 0 5 10 3 22 -5 29 -20 52 -20 72 0 18 18 23 154 6 154 -6 0 -10 -26 -10 -59 0 -41 -5 -65 -16 -75 -20 -21 -30 -20 -54 4 -15 15 -20 33 -20 75 0 30 -4 55 -10 55 -6 0 -10 -33 -10 -80z"/>
<path d="M1376 611 c-12 -14 -16 -32 -14 -66 2 -39 8 -52 31 -69 23 -17 32 -19 57 -9 l30 11 0 -44 c0 -32 4 -44 15 -44 13 0 15 20 15 120 0 100 -2 120 -15 120 -8 0 -15 -5 -15 -12 0 -9 -3 -9 -12 0 -19 19 -73 14 -92 -7z m88 -17 c24 -24 20 -80 -6 -98 -29 -20 -34 -20 -58 4 -24 24 -26 57 -4 88 18 26 46 28 68 6z"/>
<path d="M1561 604 c-44 -56 -17 -130 51 -140 30 -5 41 -2 62 19 32 32 35 83 5 121 -29 37 -89 37 -118 0z m97 -6 c7 -7 12 -29 12 -50 0 -29 -6 -41 -25 -54 -23 -15 -27 -15 -50 0 -19 13 -25 25 -25 54 0 45 14 62 50 62 14 0 31 -5 38 -12z"/>
<path d="M1745 578 c-9 -29 -20 -65 -25 -80 -7 -21 -6 -28 5 -28 8 0 21 26 33 63 l19 62 18 -63 c24 -80 43 -80 63 0 8 32 17 56 21 53 4 -2 13 -29 20 -60 8 -34 18 -55 26 -55 12 0 11 9 -2 53 -9 28 -19 63 -23 77 -13 48 -35 35 -55 -32 l-18 -63 -20 63 c-12 34 -26 62 -33 62 -7 0 -20 -24 -29 -52z"/>
<path d="M1957 623 c-16 -15 -5 -21 27 -16 52 8 56 -21 6 -52 -45 -29 -51 -56 -18 -79 29 -21 52 -20 69 1 13 15 12 16 -9 10 -58 -14 -70 23 -17 54 37 22 46 54 23 77 -13 13 -70 17 -81 5z"/>
<path d="M2167 623 c-4 -3 -7 -12 -7 -19 0 -9 7 -10 29 -1 59 22 93 -21 45 -60 -16 -13 -39 -32 -51 -43 -28 -23 -30 -61 -4 -84 22 -20 92 -19 99 2 3 9 -3 11 -21 7 -73 -19 -93 38 -27 80 61 38 74 71 40 105 -20 20 -88 28 -103 13z"/>
<path d="M2337 623 c-4 -3 -7 -35 -7 -70 0 -49 -3 -63 -15 -63 -8 0 -15 -4 -15 -9 0 -5 7 -11 15 -15 8 -3 15 -15 15 -26 0 -27 18 -26 22 3 2 14 11 23 26 25 26 4 20 22 -9 22 -16 0 -19 7 -19 44 0 58 8 76 32 76 10 0 16 5 13 10 -7 11 -48 14 -58 3z"/>
<path d="M2440 610 c-31 -31 -28 -102 6 -129 30 -24 52 -26 88 -10 52 24 55 123 5 149 -30 16 -78 11 -99 -10z m94 -16 c38 -37 1 -123 -47 -109 -46 14 -60 62 -31 103 18 26 56 29 78 6z"/>
<path d="M2600 550 c0 -64 3 -80 15 -80 8 0 15 5 15 12 0 6 7 4 18 -5 23 -21 42 -22 42 -2 0 8 -9 15 -20 15 -27 0 -40 29 -40 89 0 39 -4 51 -15 51 -12 0 -15 -16 -15 -80z"/>
<path d="M2727 612 c-11 -12 -17 -36 -17 -65 0 -37 5 -49 26 -66 15 -12 35 -21 46 -21 25 0 68 44 68 70 0 18 -6 20 -54 20 -62 0 -76 12 -50 42 15 15 27 19 56 15 38 -5 52 6 22 17 -31 12 -81 6 -97 -12z m93 -97 c0 -38 -69 -39 -84 0 -4 12 3 15 39 15 33 0 45 -4 45 -15z"/>
<path d="M1120 415 c0 -8 7 -15 15 -15 8 0 15 7 15 15 0 8 -7 15 -15 15 -8 0 -15 -7 -15 -15z"/>
<path d="M820 225 l0 -75 40 0 c51 0 80 27 80 74 0 43 -38 76 -86 76 l-34 0 0 -75z m87 43 c17 -14 16 -73 -1 -87 -8 -7 -26 -13 -41 -14 -27 -2 -27 -1 -27 56 1 31 1 60 1 63 1 9 53 -5 68 -18z"/>
<path d="M970 281 c-15 -29 -12 -56 8 -74 52 -47 115 11 82 74 -7 13 -21 19 -45 19 -24 0 -38 -6 -45 -19z m64 3 c22 -9 21 -61 -2 -73 -38 -20 -72 35 -40 67 14 14 20 14 42 6z"/>
<path d="M1100 249 c-15 -63 -7 -75 13 -17 l14 43 13 -42 c7 -24 17 -43 21 -43 5 0 14 19 20 43 l12 42 14 -43 c20 -58 28 -46 12 17 -15 59 -35 66 -45 16 -3 -19 -10 -35 -15 -35 -4 0 -11 16 -15 35 -9 51 -30 43 -44 -16z"/>
<path d="M1261 250 c-1 -55 -1 -55 31 -57 17 -1 38 2 45 8 15 13 18 99 3 99 -5 0 -10 -20 -10 -44 0 -74 -48 -70 -60 6 l-7 43 -2 -55z"/>
<path d="M1441 286 c-7 -8 -11 -30 -9 -48 2 -25 9 -35 31 -42 49 -18 87 28 63 75 -14 29 -66 38 -85 15z m67 -8 c17 -17 15 -44 -4 -62 -21 -22 -31 -20 -49 8 -29 43 18 89 53 54z"/>
<path d="M1556 284 c-8 -21 8 -40 40 -48 34 -9 25 -32 -10 -28 -18 2 -25 -1 -21 -7 8 -15 48 -14 63 1 7 7 12 31 12 53 0 42 0 42 -39 43 -28 1 -41 -3 -45 -14z m62 -17 c2 -11 -3 -17 -17 -17 -23 0 -35 15 -26 31 10 15 39 6 43 -14z"/>
<path d="M1676 284 c-11 -28 -6 -71 9 -84 8 -7 26 -10 40 -8 22 5 25 2 25 -23 0 -16 5 -29 10 -29 6 0 10 33 10 78 l0 79 -44 1 c-32 2 -45 -2 -50 -14z m62 -6 c16 -16 15 -53 -2 -67 -31 -26 -67 20 -46 59 12 23 30 26 48 8z"/>
<path d="M1860 256 c0 -26 -5 -46 -12 -49 -10 -4 -10 -8 -2 -14 6 -4 14 -18 18 -30 5 -15 15 -23 29 -23 20 1 20 2 5 11 -21 12 -24 35 -5 43 10 5 10 7 0 12 -8 3 -13 24 -13 50 0 24 -4 44 -10 44 -5 0 -10 -20 -10 -44z"/>
<path d="M1922 249 c3 -48 5 -52 31 -55 31 -3 37 11 7 19 -16 4 -20 14 -20 46 0 23 -5 41 -11 41 -6 0 -9 -20 -7 -51z"/>
<path d="M2002 288 c-17 -17 -15 -64 4 -82 33 -34 94 -4 94 46 0 40 -69 65 -98 36z m66 -10 c32 -32 -3 -88 -41 -67 -20 12 -23 65 -4 72 21 9 32 8 45 -5z"/>
<path d="M2132 258 c-1 -27 -2 -51 -2 -55 0 -3 15 -8 35 -10 22 -2 35 1 35 8 0 8 4 8 14 -1 8 -6 25 -10 38 -8 20 3 23 9 26 56 2 31 -1 52 -7 52 -6 0 -11 -20 -11 -44 0 -25 -5 -48 -10 -51 -20 -12 -40 17 -40 56 0 22 -4 39 -10 39 -5 0 -10 -20 -10 -44 0 -77 -46 -70 -53 7 l-4 42 -1 -47z"/>
<path d="M260 211 c0 -75 20 -102 87 -114 45 -9 71 16 79 76 5 32 3 47 -5 47 -6 0 -11 -16 -11 -38 0 -57 -18 -76 -63 -68 -52 10 -67 29 -67 87 0 27 -4 49 -10 49 -5 0 -10 -18 -10 -39z"/>
</g>
<g id="layer105" fill="#f8f8f8" stroke="none">
<path d="M360 645 l-205 -41 -3 -155 -2 -154 210 -42 c175 -35 215 -40 243 -31 59 20 58 14 55 232 l-3 200 -45 17 c-44 15 -49 15 -250 -26z m100 -140 l0 -55 -55 0 -55 0 0 44 0 44 53 10 c28 5 53 10 55 11 1 0 2 -24 2 -54z m-130 -10 l0 -45 -45 0 -45 0 0 39 c0 39 1 40 38 44 20 2 40 4 45 5 4 1 7 -18 7 -43z m0 -103 c0 -36 -3 -43 -16 -38 -9 3 -29 6 -45 6 -26 0 -29 3 -29 33 0 19 2 36 4 38 3 2 23 4 45 4 l41 1 0 -44z m130 -8 l0 -51 -42 8 c-24 4 -48 8 -54 9 -7 0 -14 19 -15 43 l-4 43 57 0 58 -1 0 -51z"/>
<path d="M855 573 c-9 -32 -24 -82 -32 -110 -9 -29 -14 -56 -10 -60 11 -11 17 0 42 92 13 48 26 89 29 92 2 3 10 -15 16 -38 30 -116 42 -149 54 -149 12 0 36 71 51 153 4 20 10 37 14 37 4 0 17 -43 30 -95 13 -52 27 -95 32 -95 14 0 10 26 -20 130 -17 62 -31 95 -40 95 -9 0 -24 -32 -40 -85 -15 -47 -29 -80 -32 -75 -3 6 -16 45 -29 88 -13 42 -29 77 -36 77 -7 0 -20 -26 -29 -57z"/>
<path d="M1126 623 c-3 -3 -6 -39 -6 -80 0 -58 3 -73 15 -73 12 0 15 15 15 74 0 69 -8 95 -24 79z"/>
<path d="M1190 550 c0 -47 4 -80 10 -80 6 0 10 4 10 9 0 6 12 4 26 -4 26 -13 47 -11 72 8 15 12 17 147 2 147 -6 0 -10 -28 -10 -63 0 -64 -11 -87 -40 -87 -32 0 -50 34 -50 93 0 31 -4 57 -10 57 -6 0 -10 -33 -10 -80z"/>
<path d="M1380 610 c-25 -25 -27 -86 -4 -119 14 -20 23 -23 60 -18 l44 5 0 -44 c0 -24 5 -44 10 -44 6 0 10 47 10 120 0 73 -4 120 -10 120 -5 0 -10 -5 -10 -10 0 -7 -6 -7 -19 0 -30 16 -59 12 -81 -10z m89 -14 c7 -8 11 -34 9 -58 -3 -37 -7 -44 -32 -53 -24 -8 -31 -6 -47 14 -21 26 -24 62 -9 92 13 23 62 26 79 5z"/>
<path d="M1565 605 c-30 -30 -32 -73 -5 -107 40 -51 124 -36 135 24 17 89 -70 144 -130 83z m101 -20 c39 -60 -31 -139 -80 -89 -43 42 -21 114 34 114 20 0 35 -8 46 -25z"/>
<path d="M1741 555 c-13 -42 -20 -79 -17 -82 9 -9 12 -4 33 67 l20 65 18 -63 c27 -95 42 -95 65 3 7 30 16 52 20 50 4 -2 13 -32 20 -65 7 -35 18 -60 25 -60 9 0 6 22 -12 77 -13 43 -26 79 -28 81 -10 10 -23 -12 -35 -55 -7 -27 -16 -52 -20 -56 -4 -5 -16 17 -27 49 -11 32 -24 59 -30 61 -5 2 -20 -31 -32 -72z"/>
<path d="M1957 623 c-14 -13 -6 -18 30 -18 48 0 53 -20 10 -45 -41 -24 -51 -44 -37 -71 8 -13 21 -19 45 -19 19 0 35 4 35 8 0 4 -12 8 -27 7 -42 0 -44 38 -3 55 38 16 51 57 25 77 -20 14 -67 18 -78 6z"/>
<path d="M2173 623 c-27 -10 -11 -21 25 -17 20 3 43 1 51 -5 21 -14 6 -54 -28 -74 -65 -38 -77 -71 -41 -107 23 -23 90 -28 90 -7 0 9 -10 12 -32 9 -22 -3 -35 0 -45 14 -20 27 -17 31 37 70 55 40 66 76 32 107 -18 16 -63 21 -89 10z"/>
<path d="M2342 618 c-7 -7 -12 -38 -12 -70 0 -45 -3 -58 -15 -58 -8 0 -15 -4 -15 -10 0 -5 7 -10 15 -10 8 0 15 -9 15 -19 0 -11 5 -23 10 -26 6 -4 10 5 10 19 0 19 5 26 20 26 11 0 20 5 20 10 0 6 -9 10 -20 10 -18 0 -20 7 -20 56 0 47 3 57 20 61 11 3 20 9 20 14 0 13 -34 11 -48 -3z"/>
<path d="M2440 610 c-26 -26 -27 -89 -2 -120 13 -16 29 -22 56 -22 52 0 76 24 76 79 0 54 -26 83 -75 83 -22 0 -43 -8 -55 -20z m100 -19 c15 -29 12 -72 -7 -93 -48 -53 -119 26 -83 93 7 13 21 19 45 19 24 0 38 -6 45 -19z"/>
<path d="M2610 550 c0 -47 4 -80 10 -80 6 0 10 5 10 12 0 9 3 9 12 0 15 -15 48 -16 48 -1 0 5 -5 7 -11 4 -5 -4 -19 1 -30 11 -15 13 -19 30 -19 76 0 32 -4 58 -10 58 -6 0 -10 -33 -10 -80z"/>
<path d="M2731 611 c-26 -26 -28 -90 -3 -120 20 -26 76 -31 96 -10 8 8 16 26 20 42 l6 27 -60 0 c-63 0 -73 9 -47 44 10 14 23 17 50 14 23 -2 36 0 34 6 -2 6 -20 12 -40 14 -26 2 -42 -3 -56 -17z m89 -89 c0 -41 -45 -55 -74 -23 -24 27 -12 41 35 41 31 0 39 -4 39 -18z"/>
<path d="M1126 423 c-11 -11 -6 -23 9 -23 8 0 15 4 15 9 0 13 -16 22 -24 14z"/>
<path d="M820 224 l0 -77 47 6 c29 3 52 12 60 23 37 50 -6 124 -72 124 l-35 0 0 -76z m81 48 c15 -13 22 -30 22 -52 0 -38 -23 -60 -65 -60 -28 0 -28 0 -28 65 0 62 1 65 24 65 13 0 34 -8 47 -18z"/>
<path d="M975 276 c-35 -54 36 -116 77 -66 22 27 23 54 2 74 -23 24 -61 20 -79 -8z m73 -28 c3 -30 -1 -38 -18 -43 -28 -9 -50 11 -50 45 0 34 8 42 40 38 21 -3 25 -9 28 -40z"/>
<path d="M1110 276 c-5 -15 -12 -39 -15 -54 -5 -27 -5 -27 9 3 9 17 16 37 16 45 1 8 8 2 16 -15 l15 -30 -6 30 c-9 44 -23 52 -35 21z"/>
<path d="M1180 275 c-6 -14 -10 -33 -10 -41 0 -8 -4 -14 -10 -14 -5 0 -10 -4 -10 -10 0 -27 21 -5 31 33 l12 42 14 -48 c18 -61 28 -55 12 7 -14 56 -26 66 -39 31z"/>
<path d="M1262 245 c-1 -37 2 -55 7 -46 6 9 11 10 15 2 11 -18 44 -13 56 8 13 25 13 91 0 91 -5 0 -10 -20 -10 -45 0 -79 -55 -71 -63 8 -3 34 -4 30 -5 -18z"/>
<path d="M1380 220 c0 -47 4 -80 10 -80 6 0 10 33 10 80 0 47 -4 80 -10 80 -6 0 -10 -33 -10 -80z"/>
<path d="M1442 288 c-7 -7 -12 -24 -12 -38 0 -69 92 -79 98 -12 2 18 -2 40 -9 48 -14 17 -61 18 -77 2z m66 -10 c16 -16 15 -53 -3 -68 -20 -17 -54 -3 -61 26 -11 42 34 72 64 42z"/>
<path d="M1564 285 c-10 -25 4 -45 30 -45 14 0 27 -4 30 -9 9 -13 -22 -34 -39 -27 -9 3 -13 2 -10 -4 8 -14 38 -13 53 2 7 7 12 30 12 53 0 39 -1 40 -35 43 -24 1 -37 -3 -41 -13z m56 -15 c9 -17 8 -20 -14 -20 -27 0 -41 14 -31 30 10 17 34 11 45 -10z"/>
<path d="M1682 288 c-33 -33 0 -105 44 -94 20 5 23 2 27 -26 2 -18 5 3 5 47 l2 81 -33 2 c-18 1 -38 -3 -45 -10z m66 -34 c6 -56 -50 -73 -64 -19 -8 31 12 57 40 53 15 -2 22 -11 24 -34z"/>
<path d="M1858 243 c-3 -63 8 -97 35 -99 12 -2 13 -1 2 3 -18 5 -20 39 -2 46 10 4 10 6 0 6 -9 1 -13 18 -13 51 0 69 -17 63 -22 -7z"/>
<path d="M1932 245 c-1 -37 2 -55 7 -46 6 9 11 10 15 2 4 -6 12 -11 19 -11 6 0 2 7 -10 15 -15 11 -23 28 -26 58 -3 34 -4 31 -5 -18z"/>
<path d="M2006 284 c-39 -39 1 -106 52 -88 21 7 28 17 30 42 2 18 -2 40 -9 48 -15 19 -54 18 -73 -2z m72 -30 c4 -36 -18 -59 -46 -49 -46 14 -31 89 16 83 22 -2 28 -9 30 -34z"/>
<path d="M2133 245 c-1 -33 1 -55 4 -48 3 9 9 10 23 1 14 -9 22 -9 33 1 12 10 19 10 35 0 33 -20 52 4 50 60 l-1 46 -4 -42 c-8 -80 -58 -80 -66 0 l-4 42 -1 -41 c-4 -81 -57 -81 -65 -1 -3 32 -4 28 -4 -18z"/>
<path d="M260 216 c0 -50 18 -92 46 -105 34 -15 89 -14 103 3 16 19 27 106 12 106 -6 0 -11 -18 -11 -44 0 -54 -17 -71 -66 -63 -54 9 -64 22 -64 83 0 30 -4 54 -10 54 -5 0 -10 -15 -10 -34z"/>
<path d="M351 208 c-1 -28 4 -40 19 -48 20 -11 30 3 10 15 -5 3 -14 20 -19 38 l-9 32 -1 -37z"/>
<path d="M481 187 c-1 -19 -8 -31 -23 -37 l-23 -9 23 0 c26 -1 36 17 29 51 -4 20 -4 20 -6 -5z"/>
</g>


</svg>